<mxfile host="app.diagrams.net" modified="2023-11-07T08:28:27.945Z" agent="Mozilla/5.0 (Windows NT 10.0; Win64; x64) AppleWebKit/537.36 (KHTML, like Gecko) Chrome/119.0.0.0 Safari/537.36 Edg/119.0.0.0" etag="qBd1xoGSRNJRHFNqMMGx" version="22.0.8" type="device">
  <diagram name="Sayfa -1" id="EVGxpF09j1gA-2RbMjRz">
    <mxGraphModel dx="1328" dy="753" grid="1" gridSize="10" guides="1" tooltips="1" connect="1" arrows="1" fold="1" page="1" pageScale="1" pageWidth="827" pageHeight="1169" math="0" shadow="0">
      <root>
        <mxCell id="0" />
        <mxCell id="1" parent="0" />
        <mxCell id="oIalInff0dngOWjOW0hy-53" value="" style="edgeStyle=orthogonalEdgeStyle;rounded=0;orthogonalLoop=1;jettySize=auto;html=1;" edge="1" parent="1" source="oIalInff0dngOWjOW0hy-49" target="oIalInff0dngOWjOW0hy-51">
          <mxGeometry relative="1" as="geometry" />
        </mxCell>
        <mxCell id="oIalInff0dngOWjOW0hy-49" value="START" style="rounded=1;whiteSpace=wrap;html=1;arcSize=50;" vertex="1" parent="1">
          <mxGeometry x="120" y="30" width="120" height="60" as="geometry" />
        </mxCell>
        <mxCell id="oIalInff0dngOWjOW0hy-56" value="" style="edgeStyle=orthogonalEdgeStyle;rounded=0;orthogonalLoop=1;jettySize=auto;html=1;" edge="1" parent="1" source="oIalInff0dngOWjOW0hy-50" target="oIalInff0dngOWjOW0hy-55">
          <mxGeometry relative="1" as="geometry" />
        </mxCell>
        <mxCell id="oIalInff0dngOWjOW0hy-50" value="OUTPUT&lt;br&gt;&quot;N\tN*10\tN*100\tN*1000\n\n&quot;" style="shape=parallelogram;perimeter=parallelogramPerimeter;whiteSpace=wrap;html=1;fixedSize=1;" vertex="1" parent="1">
          <mxGeometry x="70" y="220" width="250" height="60" as="geometry" />
        </mxCell>
        <mxCell id="oIalInff0dngOWjOW0hy-54" value="" style="edgeStyle=orthogonalEdgeStyle;rounded=0;orthogonalLoop=1;jettySize=auto;html=1;" edge="1" parent="1" source="oIalInff0dngOWjOW0hy-51" target="oIalInff0dngOWjOW0hy-50">
          <mxGeometry relative="1" as="geometry" />
        </mxCell>
        <mxCell id="oIalInff0dngOWjOW0hy-51" value="Ä°=1" style="whiteSpace=wrap;html=1;" vertex="1" parent="1">
          <mxGeometry x="120" y="120" width="120" height="60" as="geometry" />
        </mxCell>
        <mxCell id="oIalInff0dngOWjOW0hy-58" value="T" style="edgeStyle=orthogonalEdgeStyle;rounded=0;orthogonalLoop=1;jettySize=auto;html=1;" edge="1" parent="1" source="oIalInff0dngOWjOW0hy-55" target="oIalInff0dngOWjOW0hy-57">
          <mxGeometry relative="1" as="geometry" />
        </mxCell>
        <mxCell id="oIalInff0dngOWjOW0hy-63" value="" style="edgeStyle=orthogonalEdgeStyle;rounded=0;orthogonalLoop=1;jettySize=auto;html=1;" edge="1" parent="1" source="oIalInff0dngOWjOW0hy-55" target="oIalInff0dngOWjOW0hy-62">
          <mxGeometry relative="1" as="geometry" />
        </mxCell>
        <mxCell id="oIalInff0dngOWjOW0hy-64" value="F" style="edgeLabel;html=1;align=center;verticalAlign=middle;resizable=0;points=[];" vertex="1" connectable="0" parent="oIalInff0dngOWjOW0hy-63">
          <mxGeometry x="-0.2837" y="-2" relative="1" as="geometry">
            <mxPoint as="offset" />
          </mxGeometry>
        </mxCell>
        <mxCell id="oIalInff0dngOWjOW0hy-55" value="i&amp;lt;=10" style="rhombus;whiteSpace=wrap;html=1;" vertex="1" parent="1">
          <mxGeometry x="155" y="350" width="80" height="80" as="geometry" />
        </mxCell>
        <mxCell id="oIalInff0dngOWjOW0hy-60" value="" style="edgeStyle=orthogonalEdgeStyle;rounded=0;orthogonalLoop=1;jettySize=auto;html=1;" edge="1" parent="1" source="oIalInff0dngOWjOW0hy-57" target="oIalInff0dngOWjOW0hy-59">
          <mxGeometry relative="1" as="geometry" />
        </mxCell>
        <mxCell id="oIalInff0dngOWjOW0hy-57" value="OUTPUT&lt;br&gt;i \t i*10 \t i*100 \t i*1000" style="shape=parallelogram;perimeter=parallelogramPerimeter;whiteSpace=wrap;html=1;fixedSize=1;" vertex="1" parent="1">
          <mxGeometry x="295" y="360" width="225" height="60" as="geometry" />
        </mxCell>
        <mxCell id="oIalInff0dngOWjOW0hy-61" style="edgeStyle=orthogonalEdgeStyle;rounded=0;orthogonalLoop=1;jettySize=auto;html=1;exitX=1;exitY=0.5;exitDx=0;exitDy=0;" edge="1" parent="1" source="oIalInff0dngOWjOW0hy-59">
          <mxGeometry relative="1" as="geometry">
            <mxPoint x="200" y="340" as="targetPoint" />
            <Array as="points">
              <mxPoint x="700" y="390" />
              <mxPoint x="700" y="340" />
              <mxPoint x="230" y="340" />
            </Array>
          </mxGeometry>
        </mxCell>
        <mxCell id="oIalInff0dngOWjOW0hy-59" value="i++" style="whiteSpace=wrap;html=1;" vertex="1" parent="1">
          <mxGeometry x="560" y="360" width="120" height="60" as="geometry" />
        </mxCell>
        <mxCell id="oIalInff0dngOWjOW0hy-62" value="END" style="rounded=1;whiteSpace=wrap;html=1;arcSize=50;" vertex="1" parent="1">
          <mxGeometry x="135" y="520" width="120" height="60" as="geometry" />
        </mxCell>
      </root>
    </mxGraphModel>
  </diagram>
</mxfile>
